<?xml version="1.0" encoding="UTF-8"?>
<svg width="161px" height="28px" viewBox="0 0 161 28" version="1.1" xmlns="http://www.w3.org/2000/svg" xmlns:xlink="http://www.w3.org/1999/xlink">
    <!-- Generator: Sketch 51.2 (57519) - http://www.bohemiancoding.com/sketch -->
    <title>Logo</title>
    <desc>Created with Sketch.</desc>
    <defs>
        <path d="M16.2614769,35.2340694 L18.1618777,35.2340694 C19.2071033,35.2340694 19.9910108,35.1600428 20.5136236,35.0119874 C21.0362365,34.863932 21.4907444,34.6149334 21.8771612,34.2649842 C22.4029414,33.787169 22.7972706,33.1932738 23.0601607,32.4832808 C23.3230508,31.7732877 23.4544938,30.9472182 23.4544938,30.0050473 C23.4544938,29.0628765 23.3230508,28.2368069 23.0601607,27.5268139 C22.7972706,26.8168208 22.4029414,26.2229256 21.8771612,25.7451104 C21.4844097,25.3951612 21.0140653,25.1461627 20.4661136,24.9981073 C19.918162,24.8500518 19.0614066,24.7760252 17.8958216,24.7760252 L16.2614769,24.7760252 L16.2614769,35.2340694 Z M14,37.4044164 L14,22.6258675 L17.0501432,22.6258675 C19.0329046,22.6258675 20.4281016,22.7318601 21.2357759,22.9438486 C22.0434503,23.155837 22.7513425,23.5108282 23.3594738,24.0088328 C24.1639808,24.6616226 24.7736866,25.4994691 25.1886095,26.5223975 C25.6035325,27.5453258 25.8109908,28.7129272 25.8109908,30.0252366 C25.8109908,31.337546 25.6035325,32.5001001 25.1886095,33.5129338 C24.7736866,34.5257674 24.1639808,35.3619315 23.3594738,36.0214511 C22.7513425,36.5194557 22.0592868,36.8744469 21.283286,37.0864353 C20.5072851,37.2984238 19.298959,37.4044164 17.6582715,37.4044164 L14,37.4044164 Z M34.3152843,37.4044164 L34.3152843,22.6258675 L36.5767612,22.6258675 L36.5767612,37.4044164 L34.3152843,37.4044164 Z M57.0440775,30.1059937 C57.0187387,29.9915872 56.9775638,29.6752918 56.9205514,29.1570978 C56.8698738,28.7263911 56.8255316,28.3697175 56.7875234,28.0870662 C56.7305111,28.4235558 56.6497449,28.7600404 56.5452223,29.09653 C56.4406997,29.4330196 56.3092567,29.7762338 56.1508891,30.126183 L52.5116217,38 L48.8723542,29.9646688 C48.7203214,29.634909 48.5888783,29.3152487 48.478021,29.0056782 C48.3671637,28.6961078 48.270561,28.3899069 48.1882099,28.0870662 C48.1818752,28.3966367 48.1581204,28.7213443 48.1169449,29.0611987 C48.0757693,29.4010532 48.0140069,29.7560444 47.9316558,30.126183 L46.4398412,37.4044164 L44.3589023,37.4044164 L47.6465957,22 L51.7514613,31.3274448 C51.8148084,31.4755002 51.9114111,31.7211339 52.0412725,32.0643533 C52.1711338,32.4075727 52.3279153,32.8315432 52.5116217,33.3362776 C52.6446504,32.9123007 52.8536924,32.3739255 53.1387539,31.7211356 C53.2147703,31.5461611 53.2717818,31.4115672 53.30979,31.3173502 L57.3196356,22 L60.683345,37.4044164 L58.5834021,37.4044164 L57.0440775,30.1059937 Z M62.4887257,37.4044164 L62.4887257,22.6258675 L70.2518629,22.6258675 L70.2518629,24.6649842 L64.7502026,24.6649842 L64.7502026,28.3697161 L70.2518629,28.3697161 L70.2518629,30.4794953 L64.7502026,30.4794953 L64.7502026,35.2542587 L70.2518629,35.2542587 L70.2518629,37.4044164 L62.4887257,37.4044164 Z M72.8459099,37.4044164 L72.8459099,22.0403785 L81.6827735,31.0750789 C81.9234921,31.330811 82.1673745,31.6033634 82.4144278,31.8927445 C82.6614811,32.1821255 82.9212,32.5085155 83.1935921,32.8719243 L83.1935921,22.6258675 L85.284033,22.6258675 L85.284033,37.9798107 L76.2666313,28.7835962 C76.0259127,28.5345939 75.7931159,28.272136 75.568234,27.9962145 C75.3433521,27.720293 75.1295592,27.4309163 74.9268488,27.1280757 L74.9268488,37.4044164 L72.8459099,37.4044164 Z M87.6785379,34.4466877 L89.4839187,33.5583596 C89.6549556,34.2178792 89.9685186,34.7209236 90.4246171,35.0675079 C90.8807155,35.4140922 91.4634993,35.5873817 92.1729858,35.5873817 C92.8444641,35.5873817 93.3781546,35.3888558 93.7740734,34.9917981 C94.1699922,34.5947404 94.3679487,34.0630948 94.3679487,33.3968454 C94.3679487,32.5287023 93.6901458,31.7547878 92.3345198,31.0750789 C92.1444788,30.974132 91.9987829,30.9001054 91.8974277,30.8529968 C90.36443,30.0588814 89.3429748,29.3404869 88.8330314,28.6977918 C88.323088,28.0550967 88.0681201,27.2694053 88.0681201,26.340694 C88.0681201,25.1360613 88.4529474,24.1602561 89.2226136,23.4132492 C89.9922797,22.6662423 91.0010657,22.2927445 92.2490018,22.2927445 C93.2752234,22.2927445 94.1335625,22.5030473 94.8240449,22.9236593 C95.5145273,23.3442713 95.99279,23.948261 96.2588474,24.7356467 L94.4914747,25.7047319 C94.2127479,25.2403762 93.9071031,24.9005268 93.5745313,24.6851735 C93.2419595,24.4698202 92.8602995,24.3621451 92.4295399,24.3621451 C91.8214086,24.3621451 91.3383949,24.5303874 90.9804843,24.866877 C90.6225737,25.2033666 90.4436211,25.6542558 90.4436211,26.2195584 C90.4436211,27.1078909 91.2291122,27.9356429 92.800118,28.7028391 C92.9204773,28.7634072 93.0154964,28.8105151 93.0851781,28.844164 C94.4598082,29.5171432 95.4036645,30.1749705 95.9167753,30.8176656 C96.4298861,31.4603607 96.6864376,32.2628764 96.6864376,33.2252366 C96.6864376,34.6250333 96.2715209,35.7371147 95.4416751,36.5615142 C94.6118293,37.3859137 93.490604,37.7981073 92.0779657,37.7981073 C90.8933767,37.7981073 89.9225983,37.5087305 89.1656016,36.9299685 C88.4086048,36.3512064 87.9129219,35.5234544 87.6785379,34.4466877 Z M105.067205,37.4044164 L105.067205,22.6258675 L107.328682,22.6258675 L107.328682,37.4044164 L105.067205,37.4044164 Z M128.356616,30.0454259 C128.356616,29.298419 128.228341,28.5884366 127.971785,27.9154574 C127.71523,27.2424782 127.346239,26.6435357 126.864802,26.118612 C126.396034,25.600418 125.852842,25.2016838 125.235208,24.9223975 C124.617575,24.6431111 123.966694,24.50347 123.282546,24.50347 C122.598399,24.50347 121.947518,24.6414287 121.329885,24.9173502 C120.712251,25.1932716 120.162724,25.5936882 119.681287,26.118612 C119.19985,26.636806 118.832443,27.2323836 118.579055,27.9053628 C118.325666,28.578342 118.198974,29.2916892 118.198974,30.0454259 C118.198974,30.7924328 118.325666,31.4990503 118.579055,32.1652997 C118.832443,32.8315491 119.19985,33.4271267 119.681287,33.9520505 C120.162724,34.4769742 120.710668,34.8773908 121.325134,35.1533123 C121.9396,35.4292338 122.592064,35.5671924 123.282546,35.5671924 C123.960359,35.5671924 124.604906,35.4292338 125.216204,35.1533123 C125.827503,34.8773908 126.37703,34.4769742 126.864802,33.9520505 C127.346239,33.4271267 127.71523,32.8298666 127.971785,32.1602524 C128.228341,31.4906381 128.356616,30.785703 128.356616,30.0454259 Z M130.713113,30.0454259 C130.713113,31.0952734 130.527826,32.0879028 130.157246,33.0233438 C129.786666,33.9587849 129.246641,34.7932666 128.537155,35.5268139 C127.821333,36.2603612 127.013671,36.8222904 126.114144,37.2126183 C125.214616,37.6029462 124.27076,37.7981073 123.282546,37.7981073 C122.281664,37.7981073 121.326722,37.6012638 120.417692,37.207571 C119.508663,36.8138782 118.705751,36.2536314 118.008934,35.5268139 C117.299448,34.7932666 116.761006,33.9621498 116.393594,33.0334385 C116.026181,32.1047272 115.842477,31.108733 115.842477,30.0454259 C115.842477,28.9888486 116.026181,27.9928543 116.393594,27.0574132 C116.761006,26.1219722 117.299448,25.2841257 118.008934,24.5438486 C118.718421,23.8103013 119.522916,23.2517369 120.422443,22.8681388 C121.321971,22.4845407 122.275329,22.2927445 123.282546,22.2927445 C124.283429,22.2927445 125.232036,22.4845407 126.128397,22.8681388 C127.024757,23.2517369 127.827668,23.8103013 128.537155,24.5438486 C129.246641,25.2908555 129.786666,26.1337492 130.157246,27.0725552 C130.527826,28.0113612 130.713113,29.0023081 130.713113,30.0454259 Z M133.30716,37.4044164 L133.30716,22.0403785 L142.144024,31.0750789 C142.384743,31.330811 142.628625,31.6033634 142.875678,31.8927445 C143.122732,32.1821255 143.382451,32.5085155 143.654843,32.8719243 L143.654843,22.6258675 L145.745284,22.6258675 L145.745284,37.9798107 L136.727882,28.7835962 C136.487163,28.5345939 136.254366,28.272136 136.029485,27.9962145 C135.804603,27.720293 135.59081,27.4309163 135.388099,27.1280757 L135.388099,37.4044164 L133.30716,37.4044164 Z M155.456331,33.8712934 C155.779401,34.5038938 156.194318,34.9884315 156.701094,35.3249211 C157.20787,35.6614107 157.77165,35.829653 158.392451,35.829653 C159.310982,35.829653 160.055299,35.5184048 160.625422,34.8958991 C161.195545,34.2733933 161.480602,33.4540535 161.480602,32.4378549 C161.480602,31.4620351 161.181292,30.6679316 160.582663,30.0555205 C159.984033,29.4431095 159.200126,29.1369085 158.230917,29.1369085 C157.648124,29.1369085 157.108099,29.2429011 156.610825,29.4548896 C156.113551,29.666878 155.674879,29.9814911 155.294797,30.3987382 L154.734179,30.2675079 L156.463544,22.7671924 L163.038931,22.7671924 L163.038931,24.7154574 L157.82233,24.7154574 L157.005158,27.9760252 C157.38524,27.8077804 157.752647,27.6832812 158.107391,27.6025237 C158.462134,27.5217662 158.816872,27.481388 159.171615,27.481388 C160.495567,27.481388 161.57245,27.9322773 162.402296,28.8340694 C163.232142,29.7358615 163.647059,30.9101926 163.647059,32.3570978 C163.647059,34.0126266 163.162461,35.3333284 162.193252,36.3192429 C161.224043,37.3051574 159.925449,37.7981073 158.297431,37.7981073 C157.334556,37.7981073 156.498388,37.6214529 155.788902,37.2681388 C155.079415,36.9148247 154.468126,36.3680374 153.955015,35.6277603 L155.456331,33.8712934 Z" id="path-1"></path>
        <filter x="-6.0%" y="-56.2%" width="112.0%" height="212.5%" filterUnits="objectBoundingBox" id="filter-2">
            <feOffset dx="0" dy="0" in="SourceAlpha" result="shadowOffsetOuter1"></feOffset>
            <feGaussianBlur stdDeviation="3" in="shadowOffsetOuter1" result="shadowBlurOuter1"></feGaussianBlur>
            <feColorMatrix values="0 0 0 0 0   0 0 0 0 0   0 0 0 0 0  0 0 0 0.3 0" type="matrix" in="shadowBlurOuter1"></feColorMatrix>
        </filter>
    </defs>
    <g id="Page-1" stroke="none" stroke-width="1" fill="none" fill-rule="evenodd">
        <g id="Web" transform="translate(-795.000000, -16.000000)">
            <g id="Control-/-Nav-/-Top-/-Opacity-Copy">
                <g id="Logo" transform="translate(787.000000, 0.000000)">
                    <rect id="Rectangle-2" x="0" y="0" width="178" height="60"></rect>
                    <g id="D5-Logo">
                        <use fill="black" fill-opacity="1" filter="url(#filter-2)" xlink:href="#path-1"></use>
                        <use fill="#FFFFFF" fill-rule="evenodd" xlink:href="#path-1"></use>
                    </g>
                </g>
            </g>
        </g>
    </g>
</svg>